<svg xmlns="http://www.w3.org/2000/svg" viewBox="0 0 512 512" fill="none">
  <defs>
    <linearGradient id="pwaGrad" x1="0%" y1="0%" x2="100%" y2="100%">
      <stop offset="0%" stop-color="#1d4ed8" />
      <stop offset="100%" stop-color="#2563eb" />
    </linearGradient>
    <filter id="shadow" x="-10%" y="-10%" width="120%" height="120%">
      <feDropShadow dx="0" dy="8" stdDeviation="12" flood-color="#000" flood-opacity="0.25" />
    </filter>
  </defs>
  
  <!-- Rounded Base -->
  <rect width="512" height="512" rx="112" fill="url(#pwaGrad)" />

  <!-- QR Finder Patterns -->
  <!-- Top Left -->
  <rect x="72" y="72" width="120" height="120" rx="24" fill="#ffffff" />
  <rect x="94" y="94" width="76" height="76" rx="14" fill="#1d4ed8" />
  <rect x="112" y="112" width="40" height="40" rx="8" fill="#ffffff" />

  <!-- Top Right -->
  <rect x="320" y="72" width="120" height="120" rx="24" fill="#ffffff" />
  <rect x="342" y="94" width="76" height="76" rx="14" fill="#1d4ed8" />
  <rect x="360" y="112" width="40" height="40" rx="8" fill="#ffffff" />

  <!-- Bottom Left -->
  <rect x="72" y="320" width="120" height="120" rx="24" fill="#ffffff" />
  <rect x="94" y="342" width="76" height="76" rx="14" fill="#1d4ed8" />
  <rect x="112" y="360" width="40" height="40" rx="8" fill="#ffffff" />

  <!-- QR Matrix Modules -->
  <rect x="224" y="88" width="22" height="22" rx="6" fill="#ffffff" />
  <rect x="256" y="88" width="22" height="22" rx="6" fill="#ffffff" />
  <rect x="224" y="120" width="22" height="22" rx="6" fill="#ffffff" />
  <rect x="272" y="144" width="22" height="22" rx="6" fill="#ffffff" />
  
  <rect x="88" y="224" width="22" height="22" rx="6" fill="#ffffff" />
  <rect x="120" y="240" width="22" height="22" rx="6" fill="#ffffff" />
  <rect x="160" y="224" width="22" height="22" rx="6" fill="#ffffff" />
  
  <rect x="224" y="224" width="22" height="22" rx="6" fill="#ffffff" />
  <rect x="256" y="224" width="22" height="22" rx="6" fill="#ffffff" />
  <rect x="224" y="256" width="22" height="22" rx="6" fill="#ffffff" />
  <rect x="256" y="256" width="22" height="22" rx="6" fill="#ffffff" />
  <rect x="288" y="240" width="22" height="22" rx="6" fill="#ffffff" />

  <!-- Verified Attendance Badge (Bottom-Right) -->
  <circle cx="380" cy="380" r="64" fill="#10b981" filter="url(#shadow)" stroke="#ffffff" stroke-width="6" />
  <path d="M356 380 L372 396 L404 364" stroke="#ffffff" stroke-width="12" stroke-linecap="round" stroke-linejoin="round" />
</svg>